<svg xmlns="http://www.w3.org/2000/svg" xmlns:xlink="http://www.w3.org/1999/xlink" fill="none" version="1.1" width="56" height="56" viewBox="0 0 56 56"><defs><clipPath id="master_svg0_2_016"><rect x="0" y="0" width="56" height="56" rx="28"/></clipPath><clipPath id="master_svg1_2_028"><rect x="12" y="12" width="32" height="32" rx="0"/></clipPath></defs><g clip-path="url(#master_svg0_2_016)"><rect x="0" y="0" width="56" height="56" rx="28" fill="#00B87F" fill-opacity="1"/><g clip-path="url(#master_svg1_2_028)"><g><path d="M27.6818220703125,13C21.4858620703125,13,16.4218620703125,17.531,16.4218620703125,23.18C16.4218620703125,23.921,16.5098620703125,24.652,16.6818620703125,25.363L15.0878610703125,28.932000000000002C14.8167190703125,29.5388,15.2019160703125,30.2363,15.8598610703125,30.33C17.5558620703125,30.572,18.2558620703125,31.304,18.2558620703125,32.745999999999995L18.2558620703125,36.232C18.2558620703125,37.336600000000004,19.1512920703125,38.232,20.2558620703125,38.232L20.9028620703125,38.232C22.0074320703125,38.232,22.9028620703125,39.1274,22.9028620703125,40.232L22.9028620703125,42C22.9028620703125,42.5523,23.350572070312502,43,23.9028620703125,43L34.7028220703125,43C35.255122070312495,43,35.7028220703125,42.5523,35.7028220703125,42C35.7028220703125,41.4477,35.255122070312495,41,34.7028220703125,41L24.9028620703125,41L24.9028620703125,40.231C24.9028620703125,38.0219,23.1120020703125,36.231,20.9028620703125,36.231L20.254862070312498,36.231L20.254862070312498,32.745000000000005C20.254862070312498,30.693,19.248862070312498,29.286,17.4048620703125,28.647L18.6508620703125,25.857C18.7466620703125,25.6428,18.7640120703125,25.401699999999998,18.6998620703125,25.176000000000002C18.5150620703125,24.526400000000002,18.4215020703125,23.854300000000002,18.4218620703125,23.179000000000002C18.4218620703125,18.688,22.5448620703125,14.999,27.6818220703125,14.999C32.8188220703125,14.999,36.9418220703125,18.687,36.9418220703125,23.179000000000002C36.9418220703125,23.731299999999997,37.3896220703125,24.179000000000002,37.9418220703125,24.179000000000002C38.4941220703125,24.179000000000002,38.9418220703125,23.731299999999997,38.9418220703125,23.179000000000002C38.9418220703125,17.531,33.8768220703125,13,27.6818220703125,13ZM40.249822070312504,26C39.697622070312505,26,39.249822070312504,26.447699999999998,39.249822070312504,27L39.249822070312504,38.25C39.249822070312504,38.8023,39.697622070312505,39.25,40.249822070312504,39.25C40.8021220703125,39.25,41.249822070312504,38.8023,41.249822070312504,38.25L41.249822070312504,27C41.249822070312504,26.447699999999998,40.8021220703125,26,40.249822070312504,26ZM33.0588220703125,26.583C32.6918220703125,25.784,31.5458220703125,25.813000000000002,31.2208220703125,26.631L27.070822070312502,37.061C26.8665220703125,37.5743,27.1170220703125,38.1562,27.630322070312502,38.3605C28.1437220703125,38.564800000000005,28.7255220703125,38.3143,28.9298220703125,37.801L29.948822070312502,35.241C29.9668220703125,35.242000000000004,29.9828220703125,35.251000000000005,30.000822070312502,35.251000000000005L34.8398220703125,35.251000000000005L36.0328220703125,37.848C36.2634220703125,38.3497,36.8571220703125,38.5696,37.3588220703125,38.339C37.8606220703125,38.1084,38.0804220703125,37.514700000000005,37.8498220703125,37.013000000000005L33.0588220703125,26.583ZM30.7398220703125,33.25L32.2168220703125,29.54L33.9208220703125,33.25L30.7398220703125,33.25Z" fill="#FFFFFF" fill-opacity="1"/></g></g></g></svg>