<svg xmlns="http://www.w3.org/2000/svg" xmlns:xlink="http://www.w3.org/1999/xlink" fill="none" version="1.1" width="96" height="96" viewBox="0 0 96 96"><defs><linearGradient x1="0.4358978271484375" y1="0.2323719710111618" x2="0.8665873408317566" y2="0.8032853007316589" id="master_svg0_1_695"><stop offset="0%" stop-color="#5A76FF" stop-opacity="1"/><stop offset="100%" stop-color="#8A9DFF" stop-opacity="1"/></linearGradient><clipPath id="master_svg1_1_113"><rect x="0" y="0" width="96" height="96" rx="16"/></clipPath></defs><g><g clip-path="url(#master_svg1_1_113)"><rect x="0" y="0" width="96" height="96" rx="16" fill="url(#master_svg0_1_695)" fill-opacity="1"/><g><path d="M30.059,26.2L36.947,26.2L36.947,28.104L32.369,28.104L32.369,30.204L36.345,30.204L36.345,31.982L32.369,31.982L32.369,34.096L36.947,34.096L36.947,36L30.059,36L30.059,26.2ZM40.307,28.412L40.307,29.322Q40.825,28.874,41.49,28.622Q42.155,28.37,42.813,28.37Q43.891,28.37,44.528,29Q45.165,29.63,45.165,30.638L45.165,35.972L42.925,35.972L42.925,31.016Q42.925,30.61,42.589,30.351Q42.253,30.092,41.791,30.092Q41.497,30.092,41.056,30.288Q40.615,30.484,40.307,30.764L40.307,35.972L38.067,35.972L38.067,28.412L40.307,28.412ZM49.057,27.936L48.931,27.936L48.931,36L46.705,36L46.705,26.2L50.723,26.2L52.053,33.214L52.081,33.354L52.109,33.214L53.439,26.2L57.457,26.2L57.457,36L55.231,36L55.231,27.936L55.119,27.936L53.439,36L50.723,36L49.057,27.936ZM64.261,36.014Q64.037,35.594,63.995,35.118Q63.477,35.58,62.756,35.881Q62.035,36.182,61.335,36.182Q60.257,36.182,59.62,35.552Q58.983,34.922,58.983,33.928L58.983,28.44L61.223,28.44L61.223,33.55Q61.223,33.956,61.496,34.215Q61.769,34.474,62.217,34.474Q62.511,34.474,63.008,34.264Q63.505,34.054,63.841,33.802L63.841,28.44L66.081,28.44L66.081,34.558Q66.081,35.02,66.137,35.335Q66.193,35.65,66.361,36.014L64.261,36.014ZM27.784,46.4L36.8,46.4Q39.516,46.4,41.084,47.73Q42.652,49.06,42.652,51.524Q42.652,52.616,41.952,53.652Q41.252,54.688,40.076,55.444Q41.784,56.172,42.82,57.488Q43.856,58.804,43.856,60.316Q43.856,62.92,42.12,64.46Q40.384,66,37.444,66L27.784,66L27.784,46.4ZM36.24,62.612Q37.64,62.612,38.41,61.814Q39.18,61.016,39.18,59.7Q39.18,58.636,38.242,57.964Q37.304,57.292,35.428,57.292L32.404,57.292L32.404,62.612L36.24,62.612ZM35.568,54.576Q36.716,54.576,37.36,53.778Q38.004,52.98,38.004,52.028Q38.004,50.908,37.332,50.11Q36.66,49.312,35.064,49.312L32.404,49.312L32.404,54.576L35.568,54.576ZM51.22,50.88L51.22,66L46.74,66L46.74,50.88L51.22,50.88ZM46.74,44.468L51.22,44.468L51.22,48.948L46.74,48.948L46.74,44.468ZM59.48,66.224Q56.96,66.224,55.672,64.81Q54.384,63.396,54.384,60.652L54.384,44.468L58.864,44.468L58.864,59.532Q58.864,60.652,59.032,61.24Q59.2,61.828,59.592,62.136Q59.9,62.388,60.278,62.458Q60.656,62.528,61.608,62.528L61.608,66.224L59.48,66.224ZM68.132,50.88L68.132,66L63.652,66L63.652,50.88L68.132,50.88ZM63.652,44.468L68.132,44.468L68.132,48.948L63.652,48.948L63.652,44.468Z" fill="#FFFFFF" fill-opacity="1"/></g></g></g></svg>