<svg xmlns="http://www.w3.org/2000/svg" xmlns:xlink="http://www.w3.org/1999/xlink" fill="none" version="1.1" width="24" height="24" viewBox="0 0 24 24"><defs><clipPath id="master_svg0_2_08"><rect x="0" y="0" width="24" height="24" rx="0"/></clipPath><clipPath id="master_svg1_3_4"><rect x="0" y="0" width="24" height="24" rx="0"/></clipPath></defs><g clip-path="url(#master_svg0_2_08)"><g clip-path="url(#master_svg1_3_4)"><g><path d="M12,22C6.477,22,2,17.523,2,12C2,6.477,6.477,2,12,2C17.523,2,22,6.477,22,12C22,17.523,17.523,22,12,22ZM16.82,17.076C19.3134,14.7127,19.7233,10.88922,17.787399999999998,8.0511C15.8516,5.21299,12.1423,4.19913,9.032,5.6579999999999995L10.007,7.413C13.3097,5.97759,17.000999999999998,8.398859999999999,17,12L14,12L16.82,17.076ZM14.968,18.342L13.993,16.587C10.69031,18.0224,6.99901,15.6011,7,12L10,12L7.18,6.924C4.6866,9.287320000000001,4.27674,13.1108,6.21256,15.9489C8.14839,18.787,11.85769,19.8009,14.968,18.342Z" fill="#FFFFFF" fill-opacity="1" style="mix-blend-mode:passthrough"/></g></g></g></svg>