<svg xmlns="http://www.w3.org/2000/svg" xmlns:xlink="http://www.w3.org/1999/xlink" fill="none" version="1.1" width="80" height="80" viewBox="0 0 80 80"><defs><clipPath id="master_svg0_2_016"><rect x="0" y="0" width="80" height="80" rx="20"/></clipPath></defs><g clip-path="url(#master_svg0_2_016)"><rect x="0" y="0" width="80" height="80" rx="20" fill="#00B87F" fill-opacity="1"/><g><path d="M37.98672,17C33.59602,17,30.00749,20.37408,30.00749,24.58071C30.00749,25.1325,30.06985,25.67685,30.19174,26.206310000000002L29.0621749,28.864C28.870034,29.3159,29.142998,29.8353,29.609241,29.905099999999997C30.81108,30.0853,31.30713,30.6304,31.30713,31.7042L31.30713,34.3001C31.30713,35.1226,31.94166,35.7894,32.7244,35.7894L33.18288,35.7894C33.96562,35.7894,34.60015,36.456199999999995,34.60015,37.278800000000004L34.60015,38.5953C34.60015,39.0066,34.91742,39.34,35.30879,39.34L42.962,39.34C43.3534,39.34,43.6707,39.0066,43.6707,38.5953C43.6707,38.1841,43.3534,37.8507,42.962,37.8507L36.01742,37.8507L36.01742,37.278C36.01742,35.6329,34.74836,34.2993,33.18288,34.2993L32.72369,34.2993L32.72369,31.703400000000002C32.72369,30.1754,32.0108,29.1276,30.70408,28.6518L31.587040000000002,26.57418C31.65493,26.41467,31.66722,26.23514,31.621760000000002,26.067059999999998C31.49081,25.58335,31.42451,25.08286,31.42476,24.57996C31.42476,21.23567,34.34646,18.48859,37.98672,18.48859C41.627,18.48859,44.5487,21.23492,44.5487,24.57996C44.5487,24.99123,44.865899999999996,25.32463,45.2573,25.32463C45.648700000000005,25.32463,45.965900000000005,24.99123,45.965900000000005,24.57996C45.965900000000005,20.37408,42.3767,17,37.98672,17ZM46.8928,26.68067C46.5015,26.68067,46.184200000000004,27.0141,46.184200000000004,27.4253L46.184200000000004,35.802800000000005C46.184200000000004,36.2141,46.5015,36.5475,46.8928,36.5475C47.2842,36.5475,47.6015,36.2141,47.6015,35.802800000000005L47.6015,27.4253C47.6015,27.0141,47.2842,26.68067,46.8928,26.68067ZM41.797,27.114800000000002C41.537,26.51982,40.7249,26.54141,40.4946,27.1505L37.55374,34.9174C37.40893,35.2997,37.58645,35.7329,37.95022,35.8851C38.314,36.0373,38.72628,35.8507,38.87109,35.4685L39.593199999999996,33.5621C39.6059,33.5629,39.6173,33.5696,39.63,33.5696L43.0591,33.5696L43.9045,35.5035C44.0679,35.8771,44.4886,36.040800000000004,44.8442,35.8691C45.1997,35.6974,45.3555,35.2553,45.192099999999996,34.881699999999995L41.797,27.114800000000002ZM40.1537,32.079499999999996L41.2004,29.3168L42.4079,32.079499999999996L40.1537,32.079499999999996Z" fill="#FFFFFF" fill-opacity="1"/></g><g><path d="M30.212,57.848L25.46,57.848L25.46,45.112L30.212,45.112L30.212,57.848ZM28.451999999999998,55.704L28.451999999999998,47.256L27.236,47.256L27.236,55.704L28.451999999999998,55.704ZM30.436,56.072Q31.811999999999998,54.824,32.26,52.488L30.756,52.488L30.756,50.504L33.972,50.504L33.972,52.488Q33.38,56.728,30.436,58.568L30.436,56.072ZM31.332,47.256L36.388000000000005,47.256L36.388000000000005,50.872Q36.532,50.984,36.82,51.24L36.82,49.4Q38.147999999999996,48.536,38.484,46.6L40.068,46.6Q39.476,50.328,36.9,51.32Q39.572,53.88,40.116,58.584L38.275999999999996,58.584Q37.876000000000005,55.256,36.388000000000005,53.624L36.388000000000005,58.6L33.444,58.6L33.444,56.552L34.5,56.552L34.5,49.272L31.332,49.272L31.332,47.256ZM32.644,44.088Q35.284,44.216,37.428,45.08L37.428,47.032Q35.172,46.04,32.644,45.912L32.644,44.088ZM53.844,55.8Q53.428,51.24,52.308,46.568L54.452,46.568Q55.476,51.176,55.908,55.8L53.844,55.8ZM41.044,56.328Q42.084,51.56,42.388000000000005,46.584L44.452,46.584Q44.1,51.848,43.251999999999995,56.328L41.044,56.328ZM45.204,45.736L47.251999999999995,45.736L47.251999999999995,56.519999999999996L54.596,56.519999999999996L54.596,58.6L45.204,58.6L45.204,45.736ZM50.1,43.912Q50.916,47.56,51.251999999999995,51.144L49.268,51.144Q48.932,47.544,48.052,43.912L50.1,43.912Z" fill="#FFFFFF" fill-opacity="1"/></g></g></svg>