<svg xmlns="http://www.w3.org/2000/svg" xmlns:xlink="http://www.w3.org/1999/xlink" fill="none" version="1.1" width="80" height="80" viewBox="0 0 80 80"><defs><clipPath id="master_svg0_2_016"><rect x="0" y="0" width="80" height="80" rx="40"/></clipPath></defs><g clip-path="url(#master_svg0_2_016)"><g><path d="M37.98672,19C33.59602,19,30.00749,22.37408,30.00749,26.58071C30.00749,27.1325,30.06985,27.67685,30.19174,28.206310000000002L29.0621749,30.864C28.870034,31.3159,29.142998,31.8353,29.609241,31.905099999999997C30.81108,32.085300000000004,31.30713,32.6304,31.30713,33.7042L31.30713,36.3001C31.30713,37.1226,31.94166,37.7894,32.7244,37.7894L33.18288,37.7894C33.96562,37.7894,34.60015,38.456199999999995,34.60015,39.278800000000004L34.60015,40.5953C34.60015,41.0066,34.91742,41.34,35.30879,41.34L42.962,41.34C43.3534,41.34,43.6707,41.0066,43.6707,40.5953C43.6707,40.1841,43.3534,39.8507,42.962,39.8507L36.01742,39.8507L36.01742,39.278C36.01742,37.6329,34.74836,36.2993,33.18288,36.2993L32.72369,36.2993L32.72369,33.7034C32.72369,32.175399999999996,32.0108,31.1276,30.70408,30.6518L31.587040000000002,28.57418C31.65493,28.41467,31.66722,28.23514,31.621760000000002,28.067059999999998C31.49081,27.58335,31.42451,27.08286,31.42476,26.57996C31.42476,23.23567,34.34646,20.48859,37.98672,20.48859C41.627,20.48859,44.5487,23.23492,44.5487,26.57996C44.5487,26.99123,44.865899999999996,27.32463,45.2573,27.32463C45.648700000000005,27.32463,45.965900000000005,26.99123,45.965900000000005,26.57996C45.965900000000005,22.37408,42.3767,19,37.98672,19ZM46.8928,28.68067C46.5015,28.68067,46.184200000000004,29.0141,46.184200000000004,29.4253L46.184200000000004,37.802800000000005C46.184200000000004,38.2141,46.5015,38.5475,46.8928,38.5475C47.2842,38.5475,47.6015,38.2141,47.6015,37.802800000000005L47.6015,29.4253C47.6015,29.0141,47.2842,28.68067,46.8928,28.68067ZM41.797,29.114800000000002C41.537,28.51982,40.7249,28.54141,40.4946,29.1505L37.55374,36.9174C37.40893,37.2997,37.58645,37.7329,37.95022,37.8851C38.314,38.0373,38.72628,37.8507,38.87109,37.4685L39.593199999999996,35.5621C39.6059,35.5629,39.6173,35.5696,39.63,35.5696L43.0591,35.5696L43.9045,37.5035C44.0679,37.8771,44.4886,38.040800000000004,44.8442,37.8691C45.1997,37.6974,45.3555,37.2553,45.192099999999996,36.881699999999995L41.797,29.114800000000002ZM40.1537,34.079499999999996L41.2004,31.3168L42.4079,34.079499999999996L40.1537,34.079499999999996Z" fill="#FFFFFF" fill-opacity="1"/></g><g><path d="M30.212,59.848L25.46,59.848L25.46,47.112L30.212,47.112L30.212,59.848ZM28.451999999999998,57.704L28.451999999999998,49.256L27.236,49.256L27.236,57.704L28.451999999999998,57.704ZM30.436,58.072Q31.811999999999998,56.824,32.26,54.488L30.756,54.488L30.756,52.504L33.972,52.504L33.972,54.488Q33.38,58.728,30.436,60.568L30.436,58.072ZM31.332,49.256L36.388000000000005,49.256L36.388000000000005,52.872Q36.532,52.984,36.82,53.24L36.82,51.4Q38.147999999999996,50.536,38.484,48.6L40.068,48.6Q39.476,52.328,36.9,53.32Q39.572,55.88,40.116,60.584L38.275999999999996,60.584Q37.876000000000005,57.256,36.388000000000005,55.624L36.388000000000005,60.6L33.444,60.6L33.444,58.552L34.5,58.552L34.5,51.272L31.332,51.272L31.332,49.256ZM32.644,46.088Q35.284,46.216,37.428,47.08L37.428,49.032Q35.172,48.04,32.644,47.912L32.644,46.088ZM53.844,57.8Q53.428,53.24,52.308,48.568L54.452,48.568Q55.476,53.176,55.908,57.8L53.844,57.8ZM41.044,58.328Q42.084,53.56,42.388000000000005,48.584L44.452,48.584Q44.1,53.848,43.251999999999995,58.328L41.044,58.328ZM45.204,47.736L47.251999999999995,47.736L47.251999999999995,58.519999999999996L54.596,58.519999999999996L54.596,60.6L45.204,60.6L45.204,47.736ZM50.1,45.912Q50.916,49.56,51.251999999999995,53.144L49.268,53.144Q48.932,49.544,48.052,45.912L50.1,45.912Z" fill="#FFFFFF" fill-opacity="1"/></g></g></svg>