<?xml version="1.0" standalone="no"?><!DOCTYPE svg PUBLIC "-//W3C//DTD SVG 1.1//EN" "http://www.w3.org/Graphics/SVG/1.1/DTD/svg11.dtd"><svg t="1724155703231" class="icon" viewBox="0 0 1024 1024" version="1.1" xmlns="http://www.w3.org/2000/svg" p-id="5456" xmlns:xlink="http://www.w3.org/1999/xlink" width="512" height="512"><path d="M877.795556 279.893333c9.728 5.688889 15.758222 16.042667 15.758222 27.306667v404.138667a31.573333 31.573333 0 0 1-15.758222 27.306666l-350.037334 202.126223a31.516444 31.516444 0 0 1-31.516444 0L146.204444 738.702222a31.573333 31.573333 0 0 1-15.758222-27.306666V307.2c0-11.264 6.030222-21.617778 15.758222-27.306667l350.037334-202.069333a31.516444 31.516444 0 0 1 31.516444 0L877.795556 279.893333zM564.565333 14.108444a105.130667 105.130667 0 0 0-105.130666 0L109.454222 216.177778C76.913778 234.951111 56.888889 269.653333 56.888889 307.2v404.138667c0 37.546667 20.024889 72.248889 52.565333 91.022222l349.980445 202.126222c32.540444 18.773333 72.590222 18.773333 105.130666 0l349.980445-202.126222c32.540444-18.773333 52.565333-53.475556 52.565333-91.022222V307.2c0-37.546667-20.024889-72.248889-52.565333-91.022222L564.565333 14.108444z" p-id="5457" fill="#ffffff"></path><path d="M805.205333 304.64a36.807111 36.807111 0 0 0-51.143111-9.671111L493.340444 472.177778a36.807111 36.807111 0 0 0 41.358223 60.871111l260.778666-177.322667a36.807111 36.807111 0 0 0 9.671111-51.143111z" p-id="5458" fill="#ffffff"></path><path d="M220.842667 304.64a36.807111 36.807111 0 0 1 51.086222-9.671111L532.707556 472.177778a36.807111 36.807111 0 1 1-41.415112 60.871111L230.570667 355.783111a36.807111 36.807111 0 0 1-9.784889-51.143111h0.056889z" p-id="5459" fill="#ffffff"></path><path d="M512 861.411556c20.309333 0 36.807111-16.497778 36.807111-36.807112V509.269333a36.807111 36.807111 0 1 0-73.614222 0v315.335111c0 20.309333 16.497778 36.807111 36.807111 36.807112z" p-id="5460" fill="#ffffff"></path></svg>