<?xml version="1.0" standalone="no"?><!DOCTYPE svg PUBLIC "-//W3C//DTD SVG 1.1//EN" "http://www.w3.org/Graphics/SVG/1.1/DTD/svg11.dtd"><svg t="1724160177160" class="icon" viewBox="0 0 1024 1024" version="1.1" xmlns="http://www.w3.org/2000/svg" p-id="6236" xmlns:xlink="http://www.w3.org/1999/xlink" width="512" height="512"><path d="M513.315744 537.753504L141.205688 331.725475c-14.332842-7.929553-23.332534-23.034298-23.507967-39.419701-0.175433-16.385403 8.50848-31.665582 22.648347-39.910914L491.684907 47.858009c14.192496-8.280418 31.841014-8.245332 46.03351 0.087717l371.864451 218.501284c9.210211 5.43841 14.824053 15.420524 14.701251 26.051739a29.911256 29.911256 0 0 1-15.262635 25.683331l-0.087717 0.05263L513.315744 537.753504zM184.607709 291.5865l328.672949 181.993764 328.146651-182.08148L514.613946 99.470276 184.607709 291.5865z m710.71249 2.105191z" fill="#46c286" p-id="6237"></path><path d="M515.052527 982.299674c-5.192805 0-10.385609-1.350831-14.999486-4.034949a29.911256 29.911256 0 0 1-14.824054-25.771047v-446.826794c0-15.508241 12.560973-28.069214 28.069214-28.069214s28.069214 12.560973 28.069214 28.069214V907.688196l326.79582-182.204283V291.832106c0-15.508241 12.560973-28.069214 28.069213-28.069214s28.069214 12.560973 28.069214 28.069214v439.844577c0 16.508206-8.964605 31.770841-23.385164 39.823197L529.666061 978.492787a29.83582 29.83582 0 0 1-14.613534 3.806887z" fill="#46c286" p-id="6238"></path><path d="M511.614048 982.299674c-5.175261 0-10.350523-1.350831-14.964399-4.034949L140.293438 771.271818c-13.946891-8.122529-22.595717-23.279904-22.595717-39.577592V287.70944c0-15.508241 12.560973-28.069214 28.069214-28.069214s28.069214 12.560973 28.069214 28.069214v438.125338l311.392838 180.870996v-401.03889c0-15.508241 12.560973-28.069214 28.069214-28.069214s28.069214 12.560973 28.069214 28.069214v446.826794c0 10.718931-5.771732 20.648415-15.069659 25.94648-4.543704 2.578859-9.613706 3.859517-14.683708 3.859516z" fill="#46c286" p-id="6239"></path></svg>